<?xml version="1.0" encoding="utf-8"?>
<!-- Generator: Adobe Illustrator 27.6.1, SVG Export Plug-In . SVG Version: 6.00 Build 0)  -->
<svg version="1.1" id="Layer_1" xmlns="http://www.w3.org/2000/svg" xmlns:xlink="http://www.w3.org/1999/xlink" x="0px" y="0px"
	 viewBox="0 0 144 144" style="enable-background:new 0 0 144 144;" xml:space="preserve">
<style type="text/css">
	.st0{fill:#005394;}
	.st1{fill:#E1DFE0;}
	.st2{fill:#8A8C8E;}
	.st3{fill:#9D9EA0;}
	.st4{fill:#B2B1B3;}
	.st5{fill:#C8C7C8;}
	.st6{fill:url(#SVGID_1_);}
	.st7{fill:none;stroke:#C8C7C8;stroke-width:0.5;stroke-miterlimit:10;}
	.st8{fill:url(#SVGID_00000016075737314491292330000016496638836781436311_);}
	.st9{fill:url(#SVGID_00000051384463229184384230000018027004965920524213_);}
	.st10{fill:#171717;}
	.st11{fill:#087AC0;}
	.st12{fill:url(#SVGID_00000003791801378444105970000002097578315987322753_);}
	.st13{fill:url(#SVGID_00000051365782674453504390000001325443229685858965_);}
	.st14{fill:url(#SVGID_00000057138309045346319560000004387528143541186460_);}
	.st15{fill:url(#SVGID_00000036931128791264128130000014997505093319727232_);}
	.st16{fill:#8EC1D7;}
	.st17{fill:#BCD7DD;}
	.st18{fill:url(#SVGID_00000096747574685166679750000018043420440854714301_);}
	.st19{fill:url(#SVGID_00000160898658161308745070000007891896643301921671_);}
	.st20{fill:url(#SVGID_00000103968778724493423060000005215736487543021978_);}
	.st21{fill:url(#SVGID_00000034078598433809072030000012501805522680310682_);}
	.st22{fill:#FFFFFF;}
	.st23{fill:url(#SVGID_00000137104691992273154310000004353323354491565202_);}
	.st24{fill:url(#SVGID_00000005962124904232551550000000877290211999395485_);}
	.st25{fill:url(#SVGID_00000132074386233321118000000003444412085683248778_);}
	.st26{fill:url(#SVGID_00000031192469270819317630000006475121189656044672_);}
	.st27{fill:url(#SVGID_00000007407167993876430470000006449888750482220201_);}
	.st28{fill:url(#SVGID_00000132768583164559964870000013179650494304421002_);}
	.st29{fill:url(#SVGID_00000132058170509196056620000009530120334157498013_);}
	.st30{fill:url(#SVGID_00000098901981809955899170000007402119466124307841_);}
	.st31{fill:url(#SVGID_00000077322293470015848280000013567667561708086167_);}
	.st32{fill:url(#SVGID_00000133515771493091389310000004421135996749132214_);}
</style>
<g>
	<g transform="translate(57.41999840736389,75.5762710571289)">
		<g transform="translate(82.58000183105469,0)">
			<g>
				<radialGradient id="SVGID_1_" cx="-68.0079" cy="-3.5763" r="46.7338" gradientUnits="userSpaceOnUse">
					<stop  offset="0" style="stop-color:#007AC1"/>
					<stop  offset="1" style="stop-color:#005394"/>
				</radialGradient>
				<path class="st6" d="M-85.4,40.5h58.3l8.4-15.1h-58.2L-85.4,40.5z M-29,7.1H-46l-8.4,15h16.9L-29,7.1z M-29,3.9l-29.1-51.5h-17
					l29.2,51.5H-29z M-117.3,23.8l8.4,14.9l29.2-51.5l-8.5-14.9L-117.3,23.8z M-88.2,38.7l8.5-14.9l-8.5-15l-8.4,15L-88.2,38.7z
					 M-85.3-29.4l8.4,15h16.9l-8.5-15H-85.3z"/>
				
					<radialGradient id="SVGID_00000129191058758467326490000004551776175340769954_" cx="-62.3965" cy="-2.7432" r="43.4469" gradientUnits="userSpaceOnUse">
					<stop  offset="5.618000e-03" style="stop-color:#BCD7DD"/>
					<stop  offset="0.2369" style="stop-color:#BED8DE"/>
					<stop  offset="0.3594" style="stop-color:#C6DCE2"/>
					<stop  offset="0.4564" style="stop-color:#D3E3E7"/>
					<stop  offset="0.4719" style="stop-color:#D6E5E9"/>
					<stop  offset="0.4758" style="stop-color:#D4E4E8"/>
					<stop  offset="0.5469" style="stop-color:#BAD7E2"/>
					<stop  offset="0.6249" style="stop-color:#A6CDDD"/>
					<stop  offset="0.7135" style="stop-color:#98C6D9"/>
					<stop  offset="0.8211" style="stop-color:#8FC2D7"/>
					<stop  offset="1" style="stop-color:#8DC1D7"/>
				</radialGradient>
				<path style="fill:url(#SVGID_00000129191058758467326490000004551776175340769954_);" d="M-18.7,22.1l-7.5-13.2l-7.5,13.2H-18.7
					z M-57.2,20.5l8.4-14.9l-8.4-15l-8.5,15L-57.2,20.5z M-85.4,7.1l8.5,15h16.9l-8.5-15L-85.4,7.1z M-76.9-11.1l-8.5,15h16.9
					l8.4-15H-76.9z M-106.1,40.5H-91l-7.5-13.3L-106.1,40.5z M-77.8-46l-7.6,13.3h15.1L-77.8-46z"/>
			</g>
		</g>
	</g>
</g>
</svg>
