<?xml version="1.0" encoding="utf-8"?>
<!-- Generator: Adobe Illustrator 27.6.1, SVG Export Plug-In . SVG Version: 6.00 Build 0)  -->
<svg version="1.1" id="Layer_1" xmlns="http://www.w3.org/2000/svg" xmlns:xlink="http://www.w3.org/1999/xlink" x="0px" y="0px"
	 viewBox="0 0 213.6 114.4" style="enable-background:new 0 0 213.6 114.4;" xml:space="preserve">
<style type="text/css">
	.st0{fill:#005394;}
	.st1{fill:#E1DFE0;}
	.st2{fill:#8A8C8E;}
	.st3{fill:#9D9EA0;}
	.st4{fill:#B2B1B3;}
	.st5{fill:#C8C7C8;}
	.st6{fill:url(#SVGID_1_);}
	.st7{fill:none;stroke:#C8C7C8;stroke-width:0.5;stroke-miterlimit:10;}
	.st8{fill:url(#SVGID_00000070809756175848542790000002234995162894579625_);}
	.st9{fill:url(#SVGID_00000158008880391003435800000005699991591047949752_);}
	.st10{fill:#171717;}
	.st11{fill:#087AC0;}
	.st12{fill:url(#SVGID_00000105399335385082490160000014215829235798661802_);}
	.st13{fill:url(#SVGID_00000170980686614071516070000011262341814707341704_);}
	.st14{fill:url(#SVGID_00000048475512684489232370000008370668690244027814_);}
	.st15{fill:url(#SVGID_00000095319959854110886830000013855728425048711562_);}
	.st16{fill:#8EC1D7;}
	.st17{fill:#BCD7DD;}
	.st18{fill:url(#SVGID_00000008834270733029216050000008742777326718666153_);}
	.st19{fill:url(#SVGID_00000152262628934490468050000005839863273042208438_);}
	.st20{fill:url(#SVGID_00000103238516826393977450000015102568740150540683_);}
	.st21{fill:url(#SVGID_00000024001742745604748140000006095442167423291040_);}
	.st22{fill:url(#SVGID_00000072970469915270900340000012614003242832401308_);}
	.st23{fill:url(#SVGID_00000148637014620007880380000012284653235249201832_);}
	.st24{fill:#FFFFFF;}
	.st25{fill:url(#SVGID_00000025431277837419433930000004600823223538174105_);}
	.st26{fill:url(#SVGID_00000150820830501357293790000010512419321573876133_);}
	.st27{fill:url(#SVGID_00000069363379270693767590000009034712818218248080_);}
	.st28{fill:url(#SVGID_00000031169399178330965140000008794677190356471479_);}
	.st29{fill:url(#SVGID_00000013873604678854077150000004259839244083442064_);}
	.st30{fill:url(#SVGID_00000124119568966456224470000011909092330098749589_);}
	.st31{fill:url(#SVGID_00000072988667718550238220000000217838128663087528_);}
	.st32{fill:url(#SVGID_00000178897144388818284300000005147953488003072131_);}
	.st33{fill:url(#SVGID_00000008129264251602906140000004920404064637331644_);}
	.st34{fill:url(#SVGID_00000151533414737626365780000004582809301912550315_);}
</style>
<g>
	<g>
		<g transform="translate(57.41999840736389,75.5762710571289)">
			<g transform="translate(82.58000183105469,0)">
				<g>
					<radialGradient id="SVGID_1_" cx="-33.6263" cy="-33.19" r="28.0383" gradientUnits="userSpaceOnUse">
						<stop  offset="0" style="stop-color:#007AC1"/>
						<stop  offset="1" style="stop-color:#005394"/>
					</radialGradient>
					<path class="st6" d="M-44.1-6.8h34.9l5.1-9.1H-39L-44.1-6.8z M-10.2-26.8h-10.2l-5.1,9h10.1L-10.2-26.8z M-10.2-28.7
						l-17.4-30.9h-10.2l17.5,30.9H-10.2z M-63.2-16.8l5.1,8.9l17.5-30.9l-5.1-9L-63.2-16.8z M-45.7-7.8l5.1-8.9l-5.1-9l-5.1,9
						L-45.7-7.8z M-44-48.7l5.1,9h10.2l-5.1-9H-44z"/>
					
						<radialGradient id="SVGID_00000065793716483647698360000007177616254571256718_" cx="-30.2597" cy="-32.6902" r="26.0663" gradientUnits="userSpaceOnUse">
						<stop  offset="5.618000e-03" style="stop-color:#BCD7DD"/>
						<stop  offset="0.2369" style="stop-color:#BED8DE"/>
						<stop  offset="0.3594" style="stop-color:#C6DCE2"/>
						<stop  offset="0.4564" style="stop-color:#D3E3E7"/>
						<stop  offset="0.4719" style="stop-color:#D6E5E9"/>
						<stop  offset="0.4758" style="stop-color:#D4E4E8"/>
						<stop  offset="0.5469" style="stop-color:#BAD7E2"/>
						<stop  offset="0.6249" style="stop-color:#A6CDDD"/>
						<stop  offset="0.7135" style="stop-color:#98C6D9"/>
						<stop  offset="0.8211" style="stop-color:#8FC2D7"/>
						<stop  offset="1" style="stop-color:#8DC1D7"/>
					</radialGradient>
					<path style="fill:url(#SVGID_00000065793716483647698360000007177616254571256718_);" d="M-4.1-17.8l-4.5-7.9l-4.5,7.9H-4.1z
						 M-27.1-18.8l5.1-8.9l-5.1-9l-5.1,9L-27.1-18.8z M-44.1-26.8l5.1,9h10.2l-5.1-9L-44.1-26.8z M-39-37.7l-5.1,9h10.2l5.1-9H-39z
						 M-56.5-6.8h9.1l-4.5-8L-56.5-6.8z M-39.5-58.6l-4.6,8h9.1L-39.5-58.6z"/>
				</g>
			</g>
		</g>
	</g>
	<g>
		<path class="st10" d="M26.9,84.6H16.6v17.9h10.3c4.7,0,10.4-1.6,10.4-9.2C37.3,87.5,33.9,84.6,26.9,84.6z M19.2,86.9h7.7
			c5.1,0,7.6,2.1,7.6,6.5c0,4.5-2.6,6.8-7.6,6.8h-7.7V86.9z"/>
		<polygon class="st10" points="53.8,94.5 62.4,94.5 62.4,92.2 53.8,92.2 53.8,86.9 67.6,86.9 67.6,84.6 51.1,84.6 51.1,102.5 
			68.7,102.5 68.7,100.2 53.8,100.2 		"/>
		<polygon class="st10" points="84.5,84.6 81.8,84.6 81.8,102.5 97.5,102.5 97.5,100.2 84.5,100.2 		"/>
		<polygon class="st10" points="104.6,86.9 112.2,86.9 112.2,102.5 114.8,102.5 114.8,86.9 122.5,86.9 122.5,84.6 104.6,84.6 		"/>
		<path class="st10" d="M142.1,84.6h-1.8l-9.8,17.9h2.9l2.6-4.8h10.3l2.6,4.8h3.2L142.1,84.6L142.1,84.6z M145,95.4h-7.8l3.9-7.3
			L145,95.4z"/>
		<polygon class="st11" points="164.3,102.5 166.9,102.5 166.9,94.9 175.6,94.9 175.6,92.7 166.9,92.7 166.9,86.9 180.7,86.9 
			180.7,84.6 164.3,84.6 		"/>
		<rect x="193.5" y="84.6" class="st11" width="2.6" height="17.9"/>
	</g>
</g>
</svg>
