<?xml version="1.0" encoding="utf-8"?>
<!-- Generator: Adobe Illustrator 27.6.1, SVG Export Plug-In . SVG Version: 6.00 Build 0)  -->
<svg version="1.1" id="Layer_1" xmlns="http://www.w3.org/2000/svg" xmlns:xlink="http://www.w3.org/1999/xlink" x="0px" y="0px"
	 viewBox="0 0 240.9 63.2" style="enable-background:new 0 0 240.9 63.2;" xml:space="preserve">
<style type="text/css">
	.st0{fill:#005394;}
	.st1{fill:#E1DFE0;}
	.st2{fill:#8A8C8E;}
	.st3{fill:#9D9EA0;}
	.st4{fill:#B2B1B3;}
	.st5{fill:#C8C7C8;}
	.st6{fill:url(#SVGID_1_);}
	.st7{fill:none;stroke:#C8C7C8;stroke-width:0.5;stroke-miterlimit:10;}
	.st8{fill:url(#SVGID_00000139260220526544947630000009268297871556579258_);}
	.st9{fill:url(#SVGID_00000051385441354051821960000004196499866391589283_);}
	.st10{fill:#171717;}
	.st11{fill:#087AC0;}
	.st12{fill:url(#SVGID_00000052792015435153170090000008509768565397094287_);}
	.st13{fill:url(#SVGID_00000079456061137991237750000007610325951331864497_);}
	.st14{fill:url(#SVGID_00000163057377834748865410000010280085835498320572_);}
	.st15{fill:url(#SVGID_00000003799747599172528190000015475528886615711107_);}
	.st16{fill:#8EC1D7;}
	.st17{fill:#BCD7DD;}
	.st18{fill:url(#SVGID_00000098912394812146383370000016297604780257752759_);}
	.st19{fill:url(#SVGID_00000173878020230815041430000006805060857001322641_);}
	.st20{fill:url(#SVGID_00000104686755558011372470000001075408567877289138_);}
	.st21{fill:url(#SVGID_00000108290094942629703380000003655381043073641148_);}
	.st22{fill:url(#SVGID_00000171688331100799903380000012101211738829952915_);}
	.st23{fill:url(#SVGID_00000093135862954872229130000013691790361232155284_);}
	.st24{fill:#FFFFFF;}
	.st25{fill:url(#SVGID_00000141421731103018268820000011609786374917714613_);}
	.st26{fill:url(#SVGID_00000139996183300803893320000008590789063952364440_);}
	.st27{fill:url(#SVGID_00000012457348433885602580000002207391448931208850_);}
	.st28{fill:url(#SVGID_00000163793329313119538690000011002999762871893144_);}
	.st29{fill:url(#SVGID_00000018936704624723335660000014774837547756401801_);}
	.st30{fill:url(#SVGID_00000008848582979446239140000017594000670558518449_);}
	.st31{fill:url(#SVGID_00000097476800470161629920000017820406830072644260_);}
	.st32{fill:url(#SVGID_00000034060996793058380900000002086092464999705766_);}
	.st33{fill:url(#SVGID_00000022542933306660881190000002444300101409577607_);}
	.st34{fill:url(#SVGID_00000151514902199940777340000014118643275647123120_);}
</style>
<g>
	<g transform="translate(57.41999840736389,75.5762710571289)">
		<g transform="translate(82.58000183105469,0)">
			<g>
				<radialGradient id="SVGID_1_" cx="-109.2915" cy="-44.576" r="24.2496" gradientUnits="userSpaceOnUse">
					<stop  offset="0" style="stop-color:#007AC1"/>
					<stop  offset="1" style="stop-color:#005394"/>
				</radialGradient>
				<path class="st6" d="M-118.3-21.7h30.2l4.4-7.8h-30.2L-118.3-21.7z M-89.1-39h-8.8l-4.4,7.8h8.7L-89.1-39z M-89.1-40.7
					l-15.1-26.7h-8.8l15.1,26.7H-89.1z M-134.9-30.4l4.4,7.7l15.1-26.7l-4.4-7.7L-134.9-30.4z M-119.8-22.6l4.4-7.7l-4.4-7.8
					l-4.4,7.8L-119.8-22.6z M-118.3-58l4.4,7.8h8.8l-4.4-7.8H-118.3z"/>
				
					<radialGradient id="SVGID_00000147181383342535145690000014612238720041530796_" cx="-106.3798" cy="-44.1438" r="22.5441" gradientUnits="userSpaceOnUse">
					<stop  offset="5.618000e-03" style="stop-color:#BCD7DD"/>
					<stop  offset="0.2369" style="stop-color:#BED8DE"/>
					<stop  offset="0.3594" style="stop-color:#C6DCE2"/>
					<stop  offset="0.4564" style="stop-color:#D3E3E7"/>
					<stop  offset="0.4719" style="stop-color:#D6E5E9"/>
					<stop  offset="0.4758" style="stop-color:#D4E4E8"/>
					<stop  offset="0.5469" style="stop-color:#BAD7E2"/>
					<stop  offset="0.6249" style="stop-color:#A6CDDD"/>
					<stop  offset="0.7135" style="stop-color:#98C6D9"/>
					<stop  offset="0.8211" style="stop-color:#8FC2D7"/>
					<stop  offset="1" style="stop-color:#8DC1D7"/>
				</radialGradient>
				<path style="fill:url(#SVGID_00000147181383342535145690000014612238720041530796_);" d="M-83.7-31.2l-3.9-6.9l-3.9,6.9H-83.7z
					 M-103.7-32.1l4.4-7.7l-4.4-7.8l-4.4,7.8L-103.7-32.1z M-118.3-39l4.4,7.8h8.8l-4.4-7.8H-118.3z M-113.9-48.5l-4.4,7.8h8.8
					l4.4-7.8H-113.9z M-129-21.7h7.8l-3.9-6.9L-129-21.7z M-114.4-66.6l-3.9,6.9h7.8L-114.4-66.6z"/>
			</g>
		</g>
	</g>
	<g>
		<path class="st10" d="M73.6,23.3h-8.9v15.4h8.9c4.1,0,9-1.4,9-7.9C82.5,25.7,79.6,23.3,73.6,23.3z M66.9,25.3h6.6
			c4.4,0,6.6,1.8,6.6,5.6c0,3.9-2.2,5.8-6.6,5.8h-6.6V25.3z"/>
		<polygon class="st10" points="96.8,31.8 104.3,31.8 104.3,29.8 96.8,29.8 96.8,25.3 108.8,25.3 108.8,23.3 94.5,23.3 94.5,38.7 
			109.7,38.7 109.7,36.7 96.8,36.7 		"/>
		<polygon class="st10" points="123.4,23.3 121.1,23.3 121.1,38.7 134.7,38.7 134.7,36.7 123.4,36.7 		"/>
		<polygon class="st10" points="140.8,25.3 147.3,25.3 147.3,38.7 149.6,38.7 149.6,25.3 156.2,25.3 156.2,23.3 140.8,23.3 		"/>
		<path class="st10" d="M173.2,23.3h-1.6l-8.5,15.4h2.5l2.2-4.1h8.9l2.2,4.1h2.7L173.2,23.3L173.2,23.3z M175.7,32.6h-6.8l3.4-6.3
			L175.7,32.6z"/>
		<polygon class="st11" points="192.4,38.7 194.7,38.7 194.7,32.2 202.2,32.2 202.2,30.2 194.7,30.2 194.7,25.3 206.6,25.3 
			206.6,23.3 192.4,23.3 		"/>
		<rect x="217.7" y="23.3" class="st11" width="2.3" height="15.4"/>
	</g>
</g>
</svg>
